# Blender 4.2.0
# www.blender.org
mtllib Pacotes.mtl
o Cube.003
v 3.445643 0.381703 0.566636
v 3.445643 0.281703 0.566636
v 3.445643 0.381703 0.666636
v 3.445643 0.281703 0.666636
v 3.345643 0.381703 0.566636
v 3.345643 0.281703 0.566636
v 3.345643 0.381703 0.666636
v 3.345643 0.281703 0.666636
vn -0.0000 1.0000 -0.0000
vn -0.0000 -0.0000 1.0000
vn -1.0000 -0.0000 -0.0000
vn -0.0000 -1.0000 -0.0000
vn 1.0000 -0.0000 -0.0000
vn -0.0000 -0.0000 -1.0000
vt 0.154638 0.061821
vt 0.854726 0.061821
vt 0.854726 0.935661
vt 0.154638 0.935661
vt 0.375000 0.750000
vt 0.625000 0.750000
vt 0.625000 1.000000
vt 0.375000 1.000000
vt 0.375000 0.000000
vt 0.625000 0.000000
vt 0.625000 0.250000
vt 0.375000 0.250000
vt 0.125000 0.500000
vt 0.375000 0.500000
vt 0.125000 0.750000
vt 0.625000 0.500000
s 0
usemtl Material
f 4/5/2 3/6/2 7/7/2 8/8/2
f 8/9/3 7/10/3 5/11/3 6/12/3
f 6/13/4 2/14/4 4/5/4 8/15/4
f 2/14/5 1/16/5 3/6/5 4/5/5
f 6/12/6 5/11/6 1/16/6 2/14/6
usemtl E
f 1/1/1 5/2/1 7/3/1 3/4/1
