# Blender 4.2.0
# www.blender.org
mtllib pacote.mtl
o Cube.002
v 0.051369 0.074972 -0.057094
v 0.051369 -0.025028 -0.057094
v 0.051369 0.074972 0.042906
v 0.051369 -0.025028 0.042906
v -0.048631 0.074972 -0.057094
v -0.048631 -0.025028 -0.057094
v -0.048631 0.074972 0.042906
v -0.048631 -0.025028 0.042906
vn -0.0000 -0.0000 1.0000
vn -1.0000 -0.0000 -0.0000
vn -0.0000 -1.0000 -0.0000
vn 1.0000 -0.0000 -0.0000
vn -0.0000 -0.0000 -1.0000
vn -0.0000 1.0000 -0.0000
vt 0.375000 0.750000
vt 0.625000 0.750000
vt 0.625000 1.000000
vt 0.375000 1.000000
vt 0.375000 0.000000
vt 0.625000 0.000000
vt 0.625000 0.250000
vt 0.375000 0.250000
vt 0.125000 0.500000
vt 0.375000 0.500000
vt 0.125000 0.750000
vt 0.625000 0.500000
vt 0.153707 0.062283
vt 0.850324 0.062283
vt 0.850324 0.917416
vt 0.153707 0.917416
s 0
usemtl Material.001
f 4/1/1 3/2/1 7/3/1 8/4/1
f 8/5/2 7/6/2 5/7/2 6/8/2
f 6/9/3 2/10/3 4/1/3 8/11/3
f 2/10/4 1/12/4 3/2/4 4/1/4
f 6/8/5 5/7/5 1/12/5 2/10/5
usemtl C
f 1/13/6 5/14/6 7/15/6 3/16/6
