# Blender 4.2.0
# www.blender.org
mtllib estantedef.mtl
o Cube.006
v -2.600292 3.051662 6.164295
v -2.400609 3.051662 6.164295
v -2.600292 3.051662 6.096250
v -2.400609 3.051662 6.096250
v -2.600292 0.016854 6.164295
v -2.400609 0.016854 6.164295
v -2.600292 0.016854 6.096250
v -2.400609 0.016854 6.096250
vn -0.0000 1.0000 -0.0000
vn -0.0000 -0.0000 -1.0000
vn -0.0000 -1.0000 -0.0000
vn -0.0000 -0.0000 1.0000
vn -1.0000 -0.0000 -0.0000
vn 1.0000 -0.0000 -0.0000
vt 0.375000 0.000000
vt 0.625000 0.000000
vt 0.625000 0.250000
vt 0.375000 0.250000
vt 0.625000 0.500000
vt 0.375000 0.500000
vt 0.625000 0.750000
vt 0.375000 0.750000
vt 0.625000 1.000000
vt 0.375000 1.000000
vt 0.125000 0.500000
vt 0.125000 0.750000
vt 0.875000 0.500000
vt 0.875000 0.750000
s 0
usemtl Material.026
f 1/1/1 2/2/1 4/3/1 3/4/1
f 3/4/2 4/3/2 8/5/2 7/6/2
f 7/6/3 8/5/3 6/7/3 5/8/3
f 5/8/4 6/7/4 2/9/4 1/10/4
f 3/11/5 7/6/5 5/8/5 1/12/5
f 8/5/6 4/13/6 2/14/6 6/7/6
o Cube.011
v -2.403700 0.986623 6.090086
v -2.403700 1.034739 6.090086
v -2.610563 0.986623 6.090086
v -2.610563 1.034739 6.090086
v -2.403700 0.986623 3.227437
v -2.403700 1.034739 3.227437
v -2.610563 0.986623 3.227437
v -2.610563 1.034739 3.227437
vn -0.0000 -0.0000 1.0000
vn -1.0000 -0.0000 -0.0000
vn -0.0000 -0.0000 -1.0000
vn 1.0000 -0.0000 -0.0000
vn -0.0000 -1.0000 -0.0000
vn -0.0000 1.0000 -0.0000
vt 0.375000 0.000000
vt 0.625000 0.000000
vt 0.625000 0.250000
vt 0.375000 0.250000
vt 0.625000 0.500000
vt 0.375000 0.500000
vt 0.625000 0.750000
vt 0.375000 0.750000
vt 0.625000 1.000000
vt 0.375000 1.000000
vt 0.125000 0.500000
vt 0.125000 0.750000
vt 0.875000 0.500000
vt 0.875000 0.750000
s 0
usemtl Material.030
f 9/15/7 10/16/7 12/17/7 11/18/7
f 11/18/8 12/17/8 16/19/8 15/20/8
f 15/20/9 16/19/9 14/21/9 13/22/9
f 13/22/10 14/21/10 10/23/10 9/24/10
f 11/25/11 15/20/11 13/22/11 9/26/11
f 16/19/12 12/27/12 10/28/12 14/21/12
o Cube.012
v -2.400482 1.521327 6.105838
v -2.400482 1.569443 6.105838
v -2.607344 1.521327 6.105838
v -2.607344 1.569443 6.105838
v -2.400482 1.521327 3.243188
v -2.400482 1.569443 3.243188
v -2.607344 1.521327 3.243188
v -2.607344 1.569443 3.243188
vn -0.0000 -0.0000 1.0000
vn -1.0000 -0.0000 -0.0000
vn -0.0000 -0.0000 -1.0000
vn 1.0000 -0.0000 -0.0000
vn -0.0000 -1.0000 -0.0000
vn -0.0000 1.0000 -0.0000
vt 0.375000 0.000000
vt 0.625000 0.000000
vt 0.625000 0.250000
vt 0.375000 0.250000
vt 0.625000 0.500000
vt 0.375000 0.500000
vt 0.625000 0.750000
vt 0.375000 0.750000
vt 0.625000 1.000000
vt 0.375000 1.000000
vt 0.125000 0.500000
vt 0.125000 0.750000
vt 0.875000 0.500000
vt 0.875000 0.750000
s 0
usemtl Material.029
f 17/29/13 18/30/13 20/31/13 19/32/13
f 19/32/14 20/31/14 24/33/14 23/34/14
f 23/34/15 24/33/15 22/35/15 21/36/15
f 21/36/16 22/35/16 18/37/16 17/38/16
f 19/39/17 23/34/17 21/36/17 17/40/17
f 24/33/18 20/41/18 18/42/18 22/35/18
o Cube.013
v -2.402455 2.070148 6.105838
v -2.402455 2.118264 6.105838
v -2.609318 2.070148 6.105838
v -2.609318 2.118264 6.105838
v -2.402455 2.070148 3.243188
v -2.402455 2.118264 3.243188
v -2.609318 2.070148 3.243188
v -2.609318 2.118264 3.243188
vn -0.0000 -0.0000 1.0000
vn -1.0000 -0.0000 -0.0000
vn -0.0000 -0.0000 -1.0000
vn 1.0000 -0.0000 -0.0000
vn -0.0000 -1.0000 -0.0000
vn -0.0000 1.0000 -0.0000
vt 0.375000 0.000000
vt 0.625000 0.000000
vt 0.625000 0.250000
vt 0.375000 0.250000
vt 0.625000 0.500000
vt 0.375000 0.500000
vt 0.625000 0.750000
vt 0.375000 0.750000
vt 0.625000 1.000000
vt 0.375000 1.000000
vt 0.125000 0.500000
vt 0.125000 0.750000
vt 0.875000 0.500000
vt 0.875000 0.750000
s 0
usemtl Material.028
f 25/43/19 26/44/19 28/45/19 27/46/19
f 27/46/20 28/45/20 32/47/20 31/48/20
f 31/48/21 32/47/21 30/49/21 29/50/21
f 29/50/22 30/49/22 26/51/22 25/52/22
f 27/53/23 31/48/23 29/50/23 25/54/23
f 32/47/24 28/55/24 26/56/24 30/49/24
o Cube.014
v -2.401124 2.599861 6.105838
v -2.401124 2.647977 6.105838
v -2.607986 2.599861 6.105838
v -2.607986 2.647977 6.105838
v -2.401124 2.599861 3.243188
v -2.401124 2.647977 3.243188
v -2.607986 2.599861 3.243188
v -2.607986 2.647977 3.243188
vn -0.0000 -0.0000 1.0000
vn -1.0000 -0.0000 -0.0000
vn -0.0000 -0.0000 -1.0000
vn 1.0000 -0.0000 -0.0000
vn -0.0000 -1.0000 -0.0000
vn -0.0000 1.0000 -0.0000
vt 0.375000 0.000000
vt 0.625000 0.000000
vt 0.625000 0.250000
vt 0.375000 0.250000
vt 0.625000 0.500000
vt 0.375000 0.500000
vt 0.625000 0.750000
vt 0.375000 0.750000
vt 0.625000 1.000000
vt 0.375000 1.000000
vt 0.125000 0.500000
vt 0.125000 0.750000
vt 0.875000 0.500000
vt 0.875000 0.750000
s 0
usemtl Material.027
f 33/57/25 34/58/25 36/59/25 35/60/25
f 35/60/26 36/59/26 40/61/26 39/62/26
f 39/62/27 40/61/27 38/63/27 37/64/27
f 37/64/28 38/63/28 34/65/28 33/66/28
f 35/67/29 39/62/29 37/64/29 33/68/29
f 40/61/30 36/69/30 34/70/30 38/63/30
o Cube.015
v -2.402225 3.042997 6.152563
v -2.402225 3.072927 6.152563
v -2.609088 3.042997 6.152563
v -2.609088 3.072927 6.152563
v -2.402225 3.042997 3.196463
v -2.402225 3.072927 3.196463
v -2.609088 3.042997 3.196463
v -2.609088 3.072927 3.196463
vn -0.0000 -0.0000 1.0000
vn -1.0000 -0.0000 -0.0000
vn -0.0000 -0.0000 -1.0000
vn 1.0000 -0.0000 -0.0000
vn -0.0000 -1.0000 -0.0000
vn -0.0000 1.0000 -0.0000
vt 0.375000 0.000000
vt 0.625000 0.000000
vt 0.625000 0.250000
vt 0.375000 0.250000
vt 0.625000 0.500000
vt 0.375000 0.500000
vt 0.625000 0.750000
vt 0.375000 0.750000
vt 0.625000 1.000000
vt 0.375000 1.000000
vt 0.125000 0.500000
vt 0.125000 0.750000
vt 0.875000 0.500000
vt 0.875000 0.750000
s 0
usemtl Material.025
f 41/71/31 42/72/31 44/73/31 43/74/31
f 43/74/32 44/73/32 48/75/32 47/76/32
f 47/76/33 48/75/33 46/77/33 45/78/33
f 45/78/34 46/77/34 42/79/34 41/80/34
f 43/81/35 47/76/35 45/78/35 41/82/35
f 48/75/36 44/83/36 42/84/36 46/77/36
o Cube.016
v -2.603724 3.051662 3.248948
v -2.404041 3.051662 3.248948
v -2.603724 3.051662 3.180903
v -2.404041 3.051662 3.180903
v -2.603724 0.016854 3.248948
v -2.404041 0.016854 3.248948
v -2.603724 0.016854 3.180903
v -2.404041 0.016854 3.180903
vn -0.0000 1.0000 -0.0000
vn -0.0000 -0.0000 -1.0000
vn -0.0000 -1.0000 -0.0000
vn -0.0000 -0.0000 1.0000
vn -1.0000 -0.0000 -0.0000
vn 1.0000 -0.0000 -0.0000
vt 0.375000 0.000000
vt 0.625000 0.000000
vt 0.625000 0.250000
vt 0.375000 0.250000
vt 0.625000 0.500000
vt 0.375000 0.500000
vt 0.625000 0.750000
vt 0.375000 0.750000
vt 0.625000 1.000000
vt 0.375000 1.000000
vt 0.125000 0.500000
vt 0.125000 0.750000
vt 0.875000 0.500000
vt 0.875000 0.750000
s 0
usemtl Material.024
f 49/85/37 50/86/37 52/87/37 51/88/37
f 51/88/38 52/87/38 56/89/38 55/90/38
f 55/90/39 56/89/39 54/91/39 53/92/39
f 53/92/40 54/91/40 50/93/40 49/94/40
f 51/95/41 55/90/41 53/92/41 49/96/41
f 56/89/42 52/97/42 50/98/42 54/91/42
o A00
v -2.541994 1.033285 3.626294
v -2.441994 1.033285 3.626294
v -2.541994 1.133285 3.626294
v -2.441994 1.133285 3.626294
v -2.541994 1.033285 3.726294
v -2.441994 1.033285 3.726294
v -2.541994 1.133285 3.726294
v -2.441994 1.133285 3.726294
vn -0.0000 1.0000 -0.0000
vn -0.0000 -0.0000 1.0000
vn 1.0000 -0.0000 -0.0000
vn -0.0000 -0.0000 -1.0000
vn -0.0000 -1.0000 -0.0000
vn -1.0000 -0.0000 -0.0000
vt 0.375000 0.750000
vt 0.625000 0.750000
vt 0.625000 1.000000
vt 0.375000 1.000000
vt 0.375000 0.000000
vt 0.625000 0.000000
vt 0.625000 0.250000
vt 0.375000 0.250000
vt 0.125000 0.500000
vt 0.375000 0.500000
vt 0.125000 0.750000
vt 0.625000 0.500000
vt 0.154638 0.061821
vt 0.854726 0.061821
vt 0.854726 0.935661
vt 0.154638 0.935661
s 0
usemtl Material
f 60/99/43 59/100/43 63/101/43 64/102/43
f 64/103/44 63/104/44 61/105/44 62/106/44
f 62/107/45 58/108/45 60/99/45 64/109/45
f 58/108/46 57/110/46 59/100/46 60/99/46
f 62/106/47 61/105/47 57/110/47 58/108/47
usemtl A00
f 57/111/48 61/112/48 63/113/48 59/114/48
o A11
v -2.541994 1.033285 4.282397
v -2.441994 1.033285 4.282397
v -2.541994 1.133285 4.282397
v -2.441994 1.133285 4.282397
v -2.541994 1.033285 4.382397
v -2.441994 1.033285 4.382397
v -2.541994 1.133285 4.382397
v -2.441994 1.133285 4.382397
vn -0.0000 1.0000 -0.0000
vn -0.0000 -0.0000 1.0000
vn 1.0000 -0.0000 -0.0000
vn -0.0000 -0.0000 -1.0000
vn -0.0000 -1.0000 -0.0000
vn -1.0000 -0.0000 -0.0000
vt 0.375000 0.750000
vt 0.625000 0.750000
vt 0.625000 1.000000
vt 0.375000 1.000000
vt 0.375000 0.000000
vt 0.625000 0.000000
vt 0.625000 0.250000
vt 0.375000 0.250000
vt 0.125000 0.500000
vt 0.375000 0.500000
vt 0.125000 0.750000
vt 0.625000 0.500000
vt 0.154638 0.061821
vt 0.854726 0.061821
vt 0.854726 0.935661
vt 0.154638 0.935661
s 0
usemtl Material
f 68/115/49 67/116/49 71/117/49 72/118/49
f 72/119/50 71/120/50 69/121/50 70/122/50
f 70/123/51 66/124/51 68/115/51 72/125/51
f 66/124/52 65/126/52 67/116/52 68/115/52
f 70/122/53 69/121/53 65/126/53 66/124/53
usemtl A11
f 65/127/54 69/128/54 71/129/54 67/130/54
o A22
v -2.541994 1.033285 5.015614
v -2.441994 1.033285 5.015614
v -2.541994 1.133285 5.015614
v -2.441994 1.133285 5.015614
v -2.541994 1.033285 5.115614
v -2.441994 1.033285 5.115614
v -2.541994 1.133285 5.115614
v -2.441994 1.133285 5.115614
vn -0.0000 1.0000 -0.0000
vn -0.0000 -0.0000 1.0000
vn 1.0000 -0.0000 -0.0000
vn -0.0000 -0.0000 -1.0000
vn -0.0000 -1.0000 -0.0000
vn -1.0000 -0.0000 -0.0000
vt 0.375000 0.750000
vt 0.625000 0.750000
vt 0.625000 1.000000
vt 0.375000 1.000000
vt 0.375000 0.000000
vt 0.625000 0.000000
vt 0.625000 0.250000
vt 0.375000 0.250000
vt 0.125000 0.500000
vt 0.375000 0.500000
vt 0.125000 0.750000
vt 0.625000 0.500000
vt 0.154638 0.061821
vt 0.854726 0.061821
vt 0.854726 0.935661
vt 0.154638 0.935661
s 0
usemtl Material
f 76/131/55 75/132/55 79/133/55 80/134/55
f 80/135/56 79/136/56 77/137/56 78/138/56
f 78/139/57 74/140/57 76/131/57 80/141/57
f 74/140/58 73/142/58 75/132/58 76/131/58
f 78/138/59 77/137/59 73/142/59 74/140/59
usemtl A22
f 73/143/60 77/144/60 79/145/60 75/146/60
o A33
v -2.541994 1.033285 5.692727
v -2.441994 1.033285 5.692727
v -2.541994 1.133285 5.692727
v -2.441994 1.133285 5.692727
v -2.541994 1.033285 5.792727
v -2.441994 1.033285 5.792727
v -2.541994 1.133285 5.792727
v -2.441994 1.133285 5.792727
vn -0.0000 1.0000 -0.0000
vn -0.0000 -0.0000 1.0000
vn 1.0000 -0.0000 -0.0000
vn -0.0000 -0.0000 -1.0000
vn -0.0000 -1.0000 -0.0000
vn -1.0000 -0.0000 -0.0000
vt 0.375000 0.750000
vt 0.625000 0.750000
vt 0.625000 1.000000
vt 0.375000 1.000000
vt 0.375000 0.000000
vt 0.625000 0.000000
vt 0.625000 0.250000
vt 0.375000 0.250000
vt 0.125000 0.500000
vt 0.375000 0.500000
vt 0.125000 0.750000
vt 0.625000 0.500000
vt 0.154638 0.061821
vt 0.854726 0.061821
vt 0.854726 0.935661
vt 0.154638 0.935661
s 0
usemtl Material
f 84/147/61 83/148/61 87/149/61 88/150/61
f 88/151/62 87/152/62 85/153/62 86/154/62
f 86/155/63 82/156/63 84/147/63 88/157/63
f 82/156/64 81/158/64 83/148/64 84/147/64
f 86/154/65 85/153/65 81/158/65 82/156/65
usemtl A33
f 81/159/66 85/160/66 87/161/66 83/162/66
o B00
v -2.541994 1.568510 3.626294
v -2.441994 1.568510 3.626294
v -2.541994 1.668510 3.626294
v -2.441994 1.668510 3.626294
v -2.541994 1.568510 3.726294
v -2.441994 1.568510 3.726294
v -2.541994 1.668510 3.726294
v -2.441994 1.668510 3.726294
vn -0.0000 1.0000 -0.0000
vn -0.0000 -0.0000 1.0000
vn 1.0000 -0.0000 -0.0000
vn -0.0000 -0.0000 -1.0000
vn -0.0000 -1.0000 -0.0000
vn -1.0000 -0.0000 -0.0000
vt 0.375000 0.750000
vt 0.625000 0.750000
vt 0.625000 1.000000
vt 0.375000 1.000000
vt 0.375000 0.000000
vt 0.625000 0.000000
vt 0.625000 0.250000
vt 0.375000 0.250000
vt 0.125000 0.500000
vt 0.375000 0.500000
vt 0.125000 0.750000
vt 0.625000 0.500000
vt 0.154638 0.061821
vt 0.854726 0.061821
vt 0.854726 0.935661
vt 0.154638 0.935661
s 0
usemtl Material
f 92/163/67 91/164/67 95/165/67 96/166/67
f 96/167/68 95/168/68 93/169/68 94/170/68
f 94/171/69 90/172/69 92/163/69 96/173/69
f 90/172/70 89/174/70 91/164/70 92/163/70
f 94/170/71 93/169/71 89/174/71 90/172/71
usemtl B00
f 89/175/72 93/176/72 95/177/72 91/178/72
o B11
v -2.541994 1.568510 4.309304
v -2.441994 1.568510 4.309304
v -2.541994 1.668510 4.309304
v -2.441994 1.668510 4.309304
v -2.541994 1.568510 4.409304
v -2.441994 1.568510 4.409304
v -2.541994 1.668510 4.409304
v -2.441994 1.668510 4.409304
vn -0.0000 1.0000 -0.0000
vn -0.0000 -0.0000 1.0000
vn 1.0000 -0.0000 -0.0000
vn -0.0000 -0.0000 -1.0000
vn -0.0000 -1.0000 -0.0000
vn -1.0000 -0.0000 -0.0000
vt 0.375000 0.750000
vt 0.625000 0.750000
vt 0.625000 1.000000
vt 0.375000 1.000000
vt 0.375000 0.000000
vt 0.625000 0.000000
vt 0.625000 0.250000
vt 0.375000 0.250000
vt 0.125000 0.500000
vt 0.375000 0.500000
vt 0.125000 0.750000
vt 0.625000 0.500000
vt 0.154638 0.061821
vt 0.854726 0.061821
vt 0.854726 0.935661
vt 0.154638 0.935661
s 0
usemtl Material
f 100/179/73 99/180/73 103/181/73 104/182/73
f 104/183/74 103/184/74 101/185/74 102/186/74
f 102/187/75 98/188/75 100/179/75 104/189/75
f 98/188/76 97/190/76 99/180/76 100/179/76
f 102/186/77 101/185/77 97/190/77 98/188/77
usemtl B11
f 97/191/78 101/192/78 103/193/78 99/194/78
o B22
v -2.541994 1.568510 5.023858
v -2.441994 1.568510 5.023858
v -2.541994 1.668510 5.023858
v -2.441994 1.668510 5.023858
v -2.541994 1.568510 5.123857
v -2.441994 1.568510 5.123857
v -2.541994 1.668510 5.123857
v -2.441994 1.668510 5.123857
vn -0.0000 1.0000 -0.0000
vn -0.0000 -0.0000 1.0000
vn 1.0000 -0.0000 -0.0000
vn -0.0000 -0.0000 -1.0000
vn -0.0000 -1.0000 -0.0000
vn -1.0000 -0.0000 -0.0000
vt 0.375000 0.750000
vt 0.625000 0.750000
vt 0.625000 1.000000
vt 0.375000 1.000000
vt 0.375000 0.000000
vt 0.625000 0.000000
vt 0.625000 0.250000
vt 0.375000 0.250000
vt 0.125000 0.500000
vt 0.375000 0.500000
vt 0.125000 0.750000
vt 0.625000 0.500000
vt 0.154638 0.061821
vt 0.854726 0.061821
vt 0.854726 0.935661
vt 0.154638 0.935661
s 0
usemtl Material
f 108/195/79 107/196/79 111/197/79 112/198/79
f 112/199/80 111/200/80 109/201/80 110/202/80
f 110/203/81 106/204/81 108/195/81 112/205/81
f 106/204/82 105/206/82 107/196/82 108/195/82
f 110/202/83 109/201/83 105/206/83 106/204/83
usemtl B22
f 105/207/84 109/208/84 111/209/84 107/210/84
o B33
v -2.541994 1.568510 5.673870
v -2.441994 1.568510 5.673870
v -2.541994 1.668510 5.673870
v -2.441994 1.668510 5.673870
v -2.541994 1.568510 5.773870
v -2.441994 1.568510 5.773870
v -2.541994 1.668510 5.773870
v -2.441994 1.668510 5.773870
vn -0.0000 1.0000 -0.0000
vn -0.0000 -0.0000 1.0000
vn 1.0000 -0.0000 -0.0000
vn -0.0000 -0.0000 -1.0000
vn -0.0000 -1.0000 -0.0000
vn -1.0000 -0.0000 -0.0000
vt 0.375000 0.750000
vt 0.625000 0.750000
vt 0.625000 1.000000
vt 0.375000 1.000000
vt 0.375000 0.000000
vt 0.625000 0.000000
vt 0.625000 0.250000
vt 0.375000 0.250000
vt 0.125000 0.500000
vt 0.375000 0.500000
vt 0.125000 0.750000
vt 0.625000 0.500000
vt 0.154638 0.061821
vt 0.854726 0.061821
vt 0.854726 0.935661
vt 0.154638 0.935661
s 0
usemtl Material
f 116/211/85 115/212/85 119/213/85 120/214/85
f 120/215/86 119/216/86 117/217/86 118/218/86
f 118/219/87 114/220/87 116/211/87 120/221/87
f 114/220/88 113/222/88 115/212/88 116/211/88
f 118/218/89 117/217/89 113/222/89 114/220/89
usemtl B33
f 113/223/90 117/224/90 119/225/90 115/226/90
o C00
v -2.541994 2.119525 3.626294
v -2.441994 2.119525 3.626294
v -2.541994 2.219525 3.626294
v -2.441994 2.219525 3.626294
v -2.541994 2.119525 3.726294
v -2.441994 2.119525 3.726294
v -2.541994 2.219525 3.726294
v -2.441994 2.219525 3.726294
vn -0.0000 1.0000 -0.0000
vn -0.0000 -0.0000 1.0000
vn 1.0000 -0.0000 -0.0000
vn -0.0000 -0.0000 -1.0000
vn -0.0000 -1.0000 -0.0000
vn -1.0000 -0.0000 -0.0000
vt 0.375000 0.750000
vt 0.625000 0.750000
vt 0.625000 1.000000
vt 0.375000 1.000000
vt 0.375000 0.000000
vt 0.625000 0.000000
vt 0.625000 0.250000
vt 0.375000 0.250000
vt 0.125000 0.500000
vt 0.375000 0.500000
vt 0.125000 0.750000
vt 0.625000 0.500000
vt 0.154638 0.061821
vt 0.854726 0.061821
vt 0.854726 0.935661
vt 0.154638 0.935661
s 0
usemtl Material
f 124/227/91 123/228/91 127/229/91 128/230/91
f 128/231/92 127/232/92 125/233/92 126/234/92
f 126/235/93 122/236/93 124/227/93 128/237/93
f 122/236/94 121/238/94 123/228/94 124/227/94
f 126/234/95 125/233/95 121/238/95 122/236/95
usemtl C00
f 121/239/96 125/240/96 127/241/96 123/242/96
o C11
v -2.541994 2.119525 4.298859
v -2.441994 2.119525 4.298859
v -2.541994 2.219525 4.298859
v -2.441994 2.219525 4.298859
v -2.541994 2.119525 4.398859
v -2.441994 2.119525 4.398859
v -2.541994 2.219525 4.398859
v -2.441994 2.219525 4.398859
vn -0.0000 1.0000 -0.0000
vn -0.0000 -0.0000 1.0000
vn 1.0000 -0.0000 -0.0000
vn -0.0000 -0.0000 -1.0000
vn -0.0000 -1.0000 -0.0000
vn -1.0000 -0.0000 -0.0000
vt 0.375000 0.750000
vt 0.625000 0.750000
vt 0.625000 1.000000
vt 0.375000 1.000000
vt 0.375000 0.000000
vt 0.625000 0.000000
vt 0.625000 0.250000
vt 0.375000 0.250000
vt 0.125000 0.500000
vt 0.375000 0.500000
vt 0.125000 0.750000
vt 0.625000 0.500000
vt 0.154638 0.061821
vt 0.854726 0.061821
vt 0.854726 0.935661
vt 0.154638 0.935661
s 0
usemtl Material
f 132/243/97 131/244/97 135/245/97 136/246/97
f 136/247/98 135/248/98 133/249/98 134/250/98
f 134/251/99 130/252/99 132/243/99 136/253/99
f 130/252/100 129/254/100 131/244/100 132/243/100
f 134/250/101 133/249/101 129/254/101 130/252/101
usemtl C11
f 129/255/102 133/256/102 135/257/102 131/258/102
o C22
v -2.541994 2.119525 5.005863
v -2.441994 2.119525 5.005863
v -2.541994 2.219525 5.005863
v -2.441994 2.219525 5.005863
v -2.541994 2.119525 5.105863
v -2.441994 2.119525 5.105863
v -2.541994 2.219525 5.105863
v -2.441994 2.219525 5.105863
vn -0.0000 1.0000 -0.0000
vn -0.0000 -0.0000 1.0000
vn 1.0000 -0.0000 -0.0000
vn -0.0000 -0.0000 -1.0000
vn -0.0000 -1.0000 -0.0000
vn -1.0000 -0.0000 -0.0000
vt 0.375000 0.750000
vt 0.625000 0.750000
vt 0.625000 1.000000
vt 0.375000 1.000000
vt 0.375000 0.000000
vt 0.625000 0.000000
vt 0.625000 0.250000
vt 0.375000 0.250000
vt 0.125000 0.500000
vt 0.375000 0.500000
vt 0.125000 0.750000
vt 0.625000 0.500000
vt 0.154638 0.061821
vt 0.854726 0.061821
vt 0.854726 0.935661
vt 0.154638 0.935661
s 0
usemtl Material
f 140/259/103 139/260/103 143/261/103 144/262/103
f 144/263/104 143/264/104 141/265/104 142/266/104
f 142/267/105 138/268/105 140/259/105 144/269/105
f 138/268/106 137/270/106 139/260/106 140/259/106
f 142/266/107 141/265/107 137/270/107 138/268/107
usemtl C22
f 137/271/108 141/272/108 143/273/108 139/274/108
o C33
v -2.541994 2.119525 5.675549
v -2.441994 2.119525 5.675549
v -2.541994 2.219525 5.675549
v -2.441994 2.219525 5.675549
v -2.541994 2.119525 5.775549
v -2.441994 2.119525 5.775549
v -2.541994 2.219525 5.775549
v -2.441994 2.219525 5.775549
vn -0.0000 1.0000 -0.0000
vn -0.0000 -0.0000 1.0000
vn 1.0000 -0.0000 -0.0000
vn -0.0000 -0.0000 -1.0000
vn -0.0000 -1.0000 -0.0000
vn -1.0000 -0.0000 -0.0000
vt 0.375000 0.750000
vt 0.625000 0.750000
vt 0.625000 1.000000
vt 0.375000 1.000000
vt 0.375000 0.000000
vt 0.625000 0.000000
vt 0.625000 0.250000
vt 0.375000 0.250000
vt 0.125000 0.500000
vt 0.375000 0.500000
vt 0.125000 0.750000
vt 0.625000 0.500000
vt 0.154638 0.061821
vt 0.854726 0.061821
vt 0.854726 0.935661
vt 0.154638 0.935661
s 0
usemtl Material
f 148/275/109 147/276/109 151/277/109 152/278/109
f 152/279/110 151/280/110 149/281/110 150/282/110
f 150/283/111 146/284/111 148/275/111 152/285/111
f 146/284/112 145/286/112 147/276/112 148/275/112
f 150/282/113 149/281/113 145/286/113 146/284/113
usemtl C33
f 145/287/114 149/288/114 151/289/114 147/290/114
o D00
v -2.541994 2.650484 3.626294
v -2.441994 2.650484 3.626294
v -2.541994 2.750484 3.626294
v -2.441994 2.750484 3.626294
v -2.541994 2.650484 3.726294
v -2.441994 2.650484 3.726294
v -2.541994 2.750484 3.726294
v -2.441994 2.750484 3.726294
vn -0.0000 1.0000 -0.0000
vn -0.0000 -0.0000 1.0000
vn 1.0000 -0.0000 -0.0000
vn -0.0000 -0.0000 -1.0000
vn -0.0000 -1.0000 -0.0000
vn -1.0000 -0.0000 -0.0000
vt 0.375000 0.750000
vt 0.625000 0.750000
vt 0.625000 1.000000
vt 0.375000 1.000000
vt 0.375000 0.000000
vt 0.625000 0.000000
vt 0.625000 0.250000
vt 0.375000 0.250000
vt 0.125000 0.500000
vt 0.375000 0.500000
vt 0.125000 0.750000
vt 0.625000 0.500000
vt 0.154638 0.061821
vt 0.854726 0.061821
vt 0.854726 0.935661
vt 0.154638 0.935661
s 0
usemtl Material
f 156/291/115 155/292/115 159/293/115 160/294/115
f 160/295/116 159/296/116 157/297/116 158/298/116
f 158/299/117 154/300/117 156/291/117 160/301/117
f 154/300/118 153/302/118 155/292/118 156/291/118
f 158/298/119 157/297/119 153/302/119 154/300/119
usemtl D00
f 153/303/120 157/304/120 159/305/120 155/306/120
o D11
v -2.541994 2.650484 4.290698
v -2.441994 2.650484 4.290698
v -2.541994 2.750484 4.290698
v -2.441994 2.750484 4.290698
v -2.541994 2.650484 4.390697
v -2.441994 2.650484 4.390697
v -2.541994 2.750484 4.390697
v -2.441994 2.750484 4.390697
vn -0.0000 1.0000 -0.0000
vn -0.0000 -0.0000 1.0000
vn 1.0000 -0.0000 -0.0000
vn -0.0000 -0.0000 -1.0000
vn -0.0000 -1.0000 -0.0000
vn -1.0000 -0.0000 -0.0000
vt 0.375000 0.750000
vt 0.625000 0.750000
vt 0.625000 1.000000
vt 0.375000 1.000000
vt 0.375000 0.000000
vt 0.625000 0.000000
vt 0.625000 0.250000
vt 0.375000 0.250000
vt 0.125000 0.500000
vt 0.375000 0.500000
vt 0.125000 0.750000
vt 0.625000 0.500000
vt 0.154638 0.061821
vt 0.854726 0.061821
vt 0.854726 0.935661
vt 0.154638 0.935661
s 0
usemtl Material
f 164/307/121 163/308/121 167/309/121 168/310/121
f 168/311/122 167/312/122 165/313/122 166/314/122
f 166/315/123 162/316/123 164/307/123 168/317/123
f 162/316/124 161/318/124 163/308/124 164/307/124
f 166/314/125 165/313/125 161/318/125 162/316/125
usemtl D11
f 161/319/126 165/320/126 167/321/126 163/322/126
o D22
v -2.541994 2.650484 4.996561
v -2.441994 2.650484 4.996561
v -2.541994 2.750484 4.996561
v -2.441994 2.750484 4.996561
v -2.541994 2.650484 5.096560
v -2.441994 2.650484 5.096560
v -2.541994 2.750484 5.096560
v -2.441994 2.750484 5.096560
vn -0.0000 1.0000 -0.0000
vn -0.0000 -0.0000 1.0000
vn 1.0000 -0.0000 -0.0000
vn -0.0000 -0.0000 -1.0000
vn -0.0000 -1.0000 -0.0000
vn -1.0000 -0.0000 -0.0000
vt 0.375000 0.750000
vt 0.625000 0.750000
vt 0.625000 1.000000
vt 0.375000 1.000000
vt 0.375000 0.000000
vt 0.625000 0.000000
vt 0.625000 0.250000
vt 0.375000 0.250000
vt 0.125000 0.500000
vt 0.375000 0.500000
vt 0.125000 0.750000
vt 0.625000 0.500000
vt 0.154638 0.061821
vt 0.854726 0.061821
vt 0.854726 0.935661
vt 0.154638 0.935661
s 0
usemtl Material
f 172/323/127 171/324/127 175/325/127 176/326/127
f 176/327/128 175/328/128 173/329/128 174/330/128
f 174/331/129 170/332/129 172/323/129 176/333/129
f 170/332/130 169/334/130 171/324/130 172/323/130
f 174/330/131 173/329/131 169/334/131 170/332/131
usemtl D22
f 169/335/132 173/336/132 175/337/132 171/338/132
o D33
v -2.541994 2.650484 5.671740
v -2.441994 2.650484 5.671740
v -2.541994 2.750484 5.671740
v -2.441994 2.750484 5.671740
v -2.541994 2.650484 5.771740
v -2.441994 2.650484 5.771740
v -2.541994 2.750484 5.771740
v -2.441994 2.750484 5.771740
vn -0.0000 1.0000 -0.0000
vn -0.0000 -0.0000 1.0000
vn 1.0000 -0.0000 -0.0000
vn -0.0000 -0.0000 -1.0000
vn -0.0000 -1.0000 -0.0000
vn -1.0000 -0.0000 -0.0000
vt 0.375000 0.750000
vt 0.625000 0.750000
vt 0.625000 1.000000
vt 0.375000 1.000000
vt 0.375000 0.000000
vt 0.625000 0.000000
vt 0.625000 0.250000
vt 0.375000 0.250000
vt 0.125000 0.500000
vt 0.375000 0.500000
vt 0.125000 0.750000
vt 0.625000 0.500000
vt 0.154638 0.061821
vt 0.854726 0.061821
vt 0.854726 0.935661
vt 0.154638 0.935661
s 0
usemtl Material
f 180/339/133 179/340/133 183/341/133 184/342/133
f 184/343/134 183/344/134 181/345/134 182/346/134
f 182/347/135 178/348/135 180/339/135 184/349/135
f 178/348/136 177/350/136 179/340/136 180/339/136
f 182/346/137 181/345/137 177/350/137 178/348/137
usemtl D33
f 177/351/138 181/352/138 183/353/138 179/354/138
